<svg xmlns="http://www.w3.org/2000/svg" xmlns:xlink="http://www.w3.org/1999/xlink" width="1080" zoomAndPan="magnify" viewBox="0 0 810 809.999993" height="1080" preserveAspectRatio="xMidYMid meet" version="1.0"><defs><clipPath id="d03b68f9e7"><path d="M 82 192 L 592 192 L 592 737 L 82 737 Z M 82 192 " clip-rule="nonzero"/></clipPath><clipPath id="76b521c5f5"><path d="M 250.984375 192.980469 L 591.121094 336.421875 L 421.90625 737.675781 L 81.769531 594.234375 Z M 250.984375 192.980469 " clip-rule="nonzero"/></clipPath><clipPath id="ada3d6452f"><path d="M 250.984375 192.980469 L 591.121094 336.421875 L 422.230469 736.90625 L 82.09375 593.464844 Z M 250.984375 192.980469 " clip-rule="nonzero"/></clipPath><clipPath id="bf9285929a"><path d="M 263 265 L 801 265 L 801 765 L 263 765 Z M 263 265 " clip-rule="nonzero"/></clipPath><clipPath id="70dd8b54d3"><path d="M 668.886719 265.132812 L 800.640625 609.964844 L 393.851562 765.394531 L 262.09375 420.566406 Z M 668.886719 265.132812 " clip-rule="nonzero"/></clipPath><clipPath id="5a07630d88"><path d="M 668.886719 265.132812 L 800.640625 609.964844 L 394.628906 765.097656 L 262.875 420.269531 Z M 668.886719 265.132812 " clip-rule="nonzero"/></clipPath><clipPath id="ca7f515079"><path d="M 204 73 L 714 73 L 714 617 L 204 617 Z M 204 73 " clip-rule="nonzero"/></clipPath><clipPath id="f83a52b548"><path d="M 373.601562 73.097656 L 713.734375 216.539062 L 544.519531 617.792969 L 204.386719 474.351562 Z M 373.601562 73.097656 " clip-rule="nonzero"/></clipPath><clipPath id="0dd05ca2cb"><path d="M 373.601562 73.097656 L 713.734375 216.539062 L 544.847656 617.023438 L 204.710938 473.582031 Z M 373.601562 73.097656 " clip-rule="nonzero"/></clipPath><clipPath id="6d495bf55f"><path d="M 19 53 L 557 53 L 557 553 L 19 553 Z M 19 53 " clip-rule="nonzero"/></clipPath><clipPath id="cc45488fba"><path d="M 425.175781 53.050781 L 556.933594 397.878906 L 150.140625 553.3125 L 18.382812 208.480469 Z M 425.175781 53.050781 " clip-rule="nonzero"/></clipPath><clipPath id="f379ea61e6"><path d="M 425.175781 53.050781 L 556.933594 397.878906 L 150.921875 553.011719 L 19.164062 208.183594 Z M 425.175781 53.050781 " clip-rule="nonzero"/></clipPath><clipPath id="656bd82a38"><path d="M 40.125 192.980469 L 769.875 192.980469 L 769.875 617.019531 L 40.125 617.019531 Z M 40.125 192.980469 " clip-rule="nonzero"/></clipPath><clipPath id="cbe34bcead"><path d="M 0 23.015625 L 809.832031 23.015625 L 809.832031 786.871094 L 0 786.871094 Z M 0 23.015625 " clip-rule="nonzero"/></clipPath></defs><g clip-path="url(#d03b68f9e7)"><g clip-path="url(#76b521c5f5)"><g clip-path="url(#ada3d6452f)"><path fill="#ed7d31" d="M 250.984375 192.980469 L 591.121094 336.421875 L 422.464844 736.347656 L 82.328125 592.90625 Z M 250.984375 192.980469 " fill-opacity="1" fill-rule="nonzero"/></g></g></g><g clip-path="url(#bf9285929a)"><g clip-path="url(#70dd8b54d3)"><g clip-path="url(#5a07630d88)"><path fill="#ed7d31" d="M 668.886719 265.132812 L 800.640625 609.964844 L 395.195312 764.882812 L 263.441406 420.050781 Z M 668.886719 265.132812 " fill-opacity="1" fill-rule="nonzero"/></g></g></g><g clip-path="url(#ca7f515079)"><g clip-path="url(#f83a52b548)"><g clip-path="url(#0dd05ca2cb)"><path fill="#ed7d31" d="M 373.601562 73.097656 L 713.734375 216.539062 L 545.082031 616.464844 L 204.945312 473.023438 Z M 373.601562 73.097656 " fill-opacity="1" fill-rule="nonzero"/></g></g></g><g clip-path="url(#6d495bf55f)"><g clip-path="url(#cc45488fba)"><g clip-path="url(#f379ea61e6)"><path fill="#ed7d31" d="M 425.175781 53.050781 L 556.933594 397.878906 L 151.488281 552.796875 L 19.730469 207.96875 Z M 425.175781 53.050781 " fill-opacity="1" fill-rule="nonzero"/></g></g></g><g clip-path="url(#656bd82a38)"><path fill="#ed7d31" d="M 40.125 192.980469 L 770.601562 192.980469 L 770.601562 617.019531 L 40.125 617.019531 Z M 40.125 192.980469 " fill-opacity="1" fill-rule="nonzero"/></g><g clip-path="url(#cbe34bcead)"><path fill="#002060" d="M 404.390625 -209.9375 C 387.351562 -209.570312 373.601562 -195.578125 373.84375 -178.417969 L 373.84375 -54.292969 C 372.871094 -11.820312 437.125 -11.820312 436.152344 -54.292969 L 436.152344 -178.417969 C 436.394531 -195.941406 422.035156 -210.300781 404.390625 -209.9375 Z M 124.253906 -179.148438 C 99.304688 -179.027344 84.703125 -150.914062 98.820312 -130.351562 L 161.125 -37.011719 C 183.273438 1.199219 239.617188 -36.402344 212.84375 -71.570312 L 150.539062 -164.910156 C 144.820312 -173.792969 134.960938 -179.148438 124.253906 -179.148438 Z M 684.769531 -179.148438 C 674.425781 -178.90625 665.058594 -173.550781 659.460938 -164.910156 L 597.152344 -71.570312 C 570.378906 -36.402344 626.722656 1.199219 648.871094 -37.011719 L 711.300781 -130.351562 C 725.660156 -151.28125 710.207031 -179.757812 684.769531 -179.148438 Z M 404.878906 39.410156 C 400.738281 39.289062 396.722656 40.140625 392.949219 41.722656 L 19.230469 197.613281 C 7.550781 202.359375 -0.117188 213.675781 -0.117188 226.332031 L -0.117188 600.050781 C -0.117188 612.585938 7.550781 624.027344 19.230469 628.773438 L 392.949219 784.539062 C 400.617188 787.703125 409.378906 787.703125 417.167969 784.539062 L 790.765625 628.773438 C 802.328125 623.902344 809.871094 612.585938 809.871094 600.050781 L 809.871094 226.332031 C 809.871094 213.796875 802.328125 202.359375 790.765625 197.613281 L 417.167969 41.722656 C 413.273438 40.019531 409.136719 39.289062 404.878906 39.410156 Z M 405.121094 104.273438 L 697.183594 225.847656 L 591.3125 269.65625 L 299.613281 148.085938 Z M 218.6875 181.914062 L 510.019531 303.242188 L 404.632812 346.808594 L 112.570312 226.089844 Z M 747.808594 272.332031 L 747.808594 579.242188 L 436.640625 708.847656 L 436.152344 401.207031 Z M 62.3125 272.820312 L 373.84375 401.570312 L 374.332031 709.332031 L 62.3125 579.242188 L 62.3125 272.820312 " fill-opacity="1" fill-rule="evenodd"/></g></svg>